<svg width="512" height="512" viewBox="0 0 512 512" fill="none" xmlns="http://www.w3.org/2000/svg">
<g clip-path="url(#clip0_242_2)">
<path d="M447.969 335.984H181.531L69.531 79.9839H0V47.9839H90.468L202.468 303.984H447.969V335.984Z" fill="#FF6500"/>
<path d="M511.969 111.984L447.969 271.984H223.984L160 111.984H511.969Z" fill="#FF6500"/>
<path d="M287.968 415.984C287.968 442.484 266.485 463.984 239.984 463.984C213.484 463.984 192 442.484 192 415.984C192 389.484 213.484 367.984 239.984 367.984C266.484 367.984 287.968 389.484 287.968 415.984Z" fill="#FF6500"/>
<path d="M447.969 415.984C447.969 442.484 426.469 463.984 399.969 463.984C373.469 463.984 351.969 442.484 351.969 415.984C351.969 389.484 373.469 367.984 399.969 367.984C426.469 367.984 447.969 389.484 447.969 415.984Z" fill="#FF6500"/>
</g>
<defs>
<clipPath id="clip0_242_2">
<rect width="511.969" height="511.969" fill="white"/>
</clipPath>
</defs>
</svg>
